<svg id="wave" style="transform:rotate(180deg); transition: 0.3s" viewBox="0 0 1440 490" version="1.1" xmlns="http://www.w3.org/2000/svg"><defs><linearGradient id="sw-gradient-0" x1="0" x2="0" y1="1" y2="0"><stop stop-color="rgba(170, 9, 174, 1)" offset="0%"></stop><stop stop-color="rgba(133.514, 10.849, 152.972, 1)" offset="100%"></stop></linearGradient></defs><path style="transform:translate(0, 0px); opacity:1" fill="url(#sw-gradient-0)" d="M0,147L40,187.8C80,229,160,310,240,351.2C320,392,400,392,480,400.2C560,408,640,425,720,408.3C800,392,880,343,960,277.7C1040,212,1120,131,1200,81.7C1280,33,1360,16,1440,16.3C1520,16,1600,33,1680,49C1760,65,1840,82,1920,147C2000,212,2080,327,2160,367.5C2240,408,2320,376,2400,343C2480,310,2560,278,2640,269.5C2720,261,2800,278,2880,310.3C2960,343,3040,392,3120,367.5C3200,343,3280,245,3360,187.8C3440,131,3520,114,3600,155.2C3680,196,3760,294,3840,318.5C3920,343,4000,294,4080,269.5C4160,245,4240,245,4320,236.8C4400,229,4480,212,4560,171.5C4640,131,4720,65,4800,32.7C4880,0,4960,0,5040,49C5120,98,5200,196,5280,236.8C5360,278,5440,261,5520,212.3C5600,163,5680,82,5720,40.8L5760,0L5760,490L5720,490C5680,490,5600,490,5520,490C5440,490,5360,490,5280,490C5200,490,5120,490,5040,490C4960,490,4880,490,4800,490C4720,490,4640,490,4560,490C4480,490,4400,490,4320,490C4240,490,4160,490,4080,490C4000,490,3920,490,3840,490C3760,490,3680,490,3600,490C3520,490,3440,490,3360,490C3280,490,3200,490,3120,490C3040,490,2960,490,2880,490C2800,490,2720,490,2640,490C2560,490,2480,490,2400,490C2320,490,2240,490,2160,490C2080,490,2000,490,1920,490C1840,490,1760,490,1680,490C1600,490,1520,490,1440,490C1360,490,1280,490,1200,490C1120,490,1040,490,960,490C880,490,800,490,720,490C640,490,560,490,480,490C400,490,320,490,240,490C160,490,80,490,40,490L0,490Z"></path></svg>