<svg version="1.0" xmlns="http://www.w3.org/2000/svg" width="1645.333" height="1706.667" viewBox="0 0 1234 1280"><path d="M546.5 65.7c-27.9 1.8-63.6 7.4-90 14-32.3 8.1-55.5 16.5-83.5 30.4-62.8 31.2-108.7 76.6-138.5 136.8-18.3 36.9-29.3 76.7-35.2 127.6-2.2 18.8-2.5 91.3-.5 115 7.9 93.9 28.5 156 68.9 208 13.8 17.8 31.6 35.4 67.3 66.7 43.1 37.7 59.5 57 74.1 87.1 13.6 28.2 20.5 59.7 22.5 101.9l.7 14.8H600l-.2-451.3-.3-451.2-24-.1c-13.2 0-26.2.1-29 .3zm117.9 4.6c-2.7 1.2-6.2 3-7.7 4-1.4.9-3 1.7-3.3 1.7-.4 0-4.5 2.5-9 5.5-7.4 5-8.5 6.2-11.9 12.8l-3.8 7.2-.1 18.5-.1 18.5 3.8 8.5 3.8 8.6-3.1 4.9c-5.5 8.7-10.1 16.8-14.1 24.5-3.5 6.8-3.9 8.2-3.9 15.3 0 9.7 1.3 13 8.9 21.7 3.3 3.8 6.5 7.8 7.3 8.8.7 1 2.1 2.3 3.2 2.9 1.7.9 1.4 1.3-2.3 3.9-5.4 3.8-9 11-9.1 18.4-.3 9.1-.3 9.1 4 10.7 2.2.9 4 1.9 4 2.2 0 2.5-3.3 16.8-5.1 22.1-2.1 6-2.3 8.8-2.6 34.3-.4 26.3-.3 28.2 1.7 34.8 1.2 3.8 3.3 8.9 4.5 11.2 3.3 5.9 14.3 18.7 16 18.7 2.1 0 1.9 1.7-.6 5.2-2 2.8-5.8 11.7-9.9 23.4-1 2.8-2.7 6.9-3.8 9.1-1.2 2.2-3.3 8.2-4.9 13.4l-2.7 9.4-.4 45.2-.4 45.1 4.3 7.7c2.3 4.3 5.9 9.5 7.9 11.6l3.6 3.8-3.8 4.3c-2.1 2.4-3.8 4.9-3.8 5.6 0 .7-1 2.9-2.3 5-6.8 11.1-9.9 26.8-7.1 36.2.8 2.5 3.1 6.7 5.2 9.5l3.8 5-1.4 4.5c-.8 2.5-2.4 6.5-3.5 9-2.7 6.2-4.7 13-4.7 16.1 0 1.5-1.1 5.5-2.4 9-2.2 5.9-2.4 8.5-3.1 32.1-.5 18.8-.4 27.1.5 31 1.2 5.6 5.5 16.9 9.7 25.5l2.5 5.2-6.6 12.5-6.6 12.5-.6 10.8c-.3 5.9-.2 13.3.4 16.3 1.3 7.3 4.2 18.3 5.2 19.5 1 1.2 2.7 10.3 4.9 26.1l1.7 12.2-2.1 2.5c-1.9 2.1-2.4 4.6-3.5 17.9-1.4 17.1-1.3 18.1 4.3 29.8 1.9 4 5.1 8.4 8.3 11.5 6.4 6.2 19.4 12.9 23.4 12.2 2.2-.5 3.1 0 4.9 2.4 1.2 1.6 5.4 4.5 9.4 6.5l7.1 3.6 19.1.2c18.7.1 19.1 0 25.5-2.8 3.6-1.5 8.4-3.4 10.8-4.1 14.8-4.8 37.2-18.8 37.2-23.2 0-.9 5.5-7 12.3-13.5l12.2-11.9 6 .7c3.3.3 8.3 1.2 11 1.9 11.4 3.2 35.1 4.4 44.6 2.4 4.3-.9 20.1-7.8 24.9-10.8.8-.6 2.8-1.3 4.4-1.6 4.5-.9 13.4-10.1 17.2-17.7 1.9-3.7 3.4-7.4 3.4-8.1 0-.8 1.4-4.1 3.2-7.3 3.3-6.1 4.4-10.4 5.7-21.4 1.1-9.2 2.3-11.7 6.3-12.5 1.8-.4 8-2.3 13.8-4.3 10.4-3.6 10.6-3.7 19.3-12.5 5.7-5.8 10.6-12.1 13.9-17.6 2.8-4.7 6.1-9.9 7.4-11.4 1.3-1.5 4-6.2 6-10.5 2-4.2 4-8.4 4.5-9.2 2.9-4.9 3.3-7.2 3.1-20.4-.1-7.6-.6-15.3-1.1-17-.6-1.7-1.5-6.7-2-11-.6-5.4-1.6-8.8-3.1-10.9-1.8-2.3-2-3.4-1.2-5.1 4.2-8.9 5.4-19.9 3.2-29.1l-1-4 12.4-12c22.6-22 24.4-24.8 28.7-45.5 1.7-8.5-.2-23.4-4.1-31.4-1.1-2.3-2.7-6.5-3.5-9.3-.9-3.1-3.8-8-7.1-12.3l-5.5-7.2 2.2-2.4c1.2-1.3 3-2.4 3.9-2.4 1.9 0 9-5.3 10.3-7.6.5-.8 1.5-4 2.3-7.2 1.9-7.1.6-21.4-2.5-28.2-1.1-2.5-2.1-5.9-2.1-7.5 0-6.9-15.8-31.4-21.3-33.1-1.9-.6-2-1.3-1.3-14.3.5-11.9.4-14.3-1.4-19.6-4-12.2-5.1-14.7-9.1-19.8-3.9-5-5-6-11.5-10.1-3-1.9-3-2-1.8-5.5.7-2 1.3-4.8 1.4-6.3 0-1.5.5-3.9 1.1-5.5 2.8-7.1 3.8-14.7 4-31.8.2-20.6-1.1-30.2-5-36.5-.5-.8-2.1-4-3.5-7-3.8-8.3-9.9-17.2-14.2-20.8-2.2-1.8-7.2-6.1-11.3-9.5-4-3.4-8.6-7.1-10.1-8.2-1.5-1.1-2.7-2.2-2.7-2.5 0-.3-.9-2.3-2.1-4.6-2.6-5.1-4.9-17.4-6-32.9-.7-9-1.6-13.5-3.5-18-1.3-3.3-2.8-7.4-3.1-9.1-1-4.5-4.7-9.1-10.6-13.1-4.7-3.1-5.8-3.4-15.7-4.1l-10.7-.7-1.9-3.3c-1.9-3.2-1.9-3.5-.2-8.5 1.1-3.3 1.9-9.8 2.2-18 .6-12.5.5-12.8-2.1-16.7-1.4-2.2-2.6-4.3-2.6-4.6 0-.4-2.1-3.2-4.7-6.3-2.7-3.1-5.5-6.5-6.3-7.6-.8-1-4.6-5.2-8.3-9.1-5.2-5.5-8.6-8.1-14.4-10.8-7.3-3.5-8.3-3.7-20.9-4.3-11.1-.5-13.8-.3-16.7 1-1.9 1-4.8 1.7-6.4 1.7-1.5 0-4.4 1.1-6.3 2.4-1.9 1.2-5.3 2.6-7.5 3-2.1.4-5.8 2.2-8.2 3.9l-4.3 3-2.7-2.4c-1.4-1.3-4.5-4.2-6.7-6.5-6.8-6.8-31.3-16.3-43.3-16.9-3.3-.1-5.1-.9-7.6-3.2-5.6-5.5-12.3-7.3-28.7-7.8-13.4-.4-14.9-.3-19.6 1.8zm27.4 6.3c12.3 2.5 17.4 6.1 23.5 17 4 7.1 6.4 16 7.2 26.4.5 6.8.8 7.7 3.5 10 2.3 1.9 3 3.3 3 6 0 5.6-3.8 11.1-9.4 13.9l-4.8 2.4-6.8-1.7c-6.6-1.7-6.9-1.7-9.4 0-1.4 1.1-2.4 2.3-2.3 2.8.4 1.3 16.9 4.5 23.7 4.5 7.7.1 11.8-1.3 16.8-5.6l4.3-3.8.5-10c.7-11.7-.8-15.8-6.8-18.8-3.1-1.5-3.7-2.4-4.3-6.5-.9-6.6-6.2-22.2-8.2-24.5-1.8-2-1.7-2 2.7-1.3 10.4 1.6 26.1 9 32.4 15.2 9.2 9.2 11.6 12.7 14.1 21.1 2.3 7.3 2.4 8.9 1.5 14-.6 3.2-1.5 10.1-2 15.3-.4 5.2-1.2 11.9-1.6 14.7-.7 5.8-.5 6.1 5.6 6.5l3.5.3.6-14c.3-7.7 1-17.3 1.4-21.3l.8-7.2 8.6.6c8.1.5 8.8.4 11.9-1.9 3.1-2.3 3.2-2.6 1.5-3.5-1-.5-6.4-1.3-12-1.7-9.3-.6-10.3-.9-10.3-2.6 0-1.1-.9-3.8-2-6l-2.1-3.9 2.5-1c1.3-.5 2.8-1.5 3.3-2.3.8-1.4 7.8-4.7 19.3-9 12.8-4.9 28.1-4.3 39.1 1.5 10.8 5.6 25.1 23.4 31.3 39.2 2.3 5.5 2.1 15.4-.4 20.7-1.1 2.4-2 5.8-2 7.5 0 1.6-.6 3.8-1.3 4.8-1.3 1.7-1.5 1.7-4.9-.6-2-1.4-5.1-3-6.9-3.7-3.9-1.5-6.4-2.6-9.9-4.5-8.6-4.7-20.1-7.8-23.8-6.5-3.6 1.4-2.7 4.5 1.8 6.3 2.2.9 4.8 1.6 5.8 1.6.9 0 4.2 1.3 7.2 3 3 1.6 6.2 2.9 7 3 .8 0 2.7 1.1 4.2 2.4 2 2 2.6 3.3 2.4 6.3-.1 2.1.4 5.8 1.2 8.2 1.2 3.4 2.2 4.6 5 5.8 3.3 1.4 3.7 1.3 6.4-.7 1.6-1.2 3.1-2 3.3-1.8 2.9 3.4 5.5 14.8 5.5 24.7 0 7.7.8 9.4 4.1 8.9 2.4-.3 2.4-.5 2.7-12.3.3-11.7-.3-16.1-3.4-23.3-.8-1.8-1.4-3.8-1.4-4.4 0-1.5 10.3-.3 20 2.3 10.9 2.9 14.5 6.6 18.9 19.6 3.1 9 3.5 11.2 4.1 25.8.3 8.8.3 16.8-.2 17.7-.5 1-1.9 1.8-3.1 1.8-3.6 0-5.4 2.1-6 6.7-.3 2.3-1.4 5.4-2.6 6.9-2.7 3.4-2.8 6.4-.2 6.4 4.6 0 12.8-2.5 15.2-4.7 4.4-4.1 6.4-3.2 19.2 8.8 3.7 3.4 8 7.2 9.6 8.3 9.7 7.2 19.1 26.1 22.1 44.5 2 12.3-.3 36.7-4.7 48.1-1.3 3.6-3.1 8.4-3.9 10.6-1.9 5.7-9 16.2-11.4 16.9-2.9.9-4.3 4-3 6.5.6 1.1 1.6 2 2.3 2 2.1 0 9.8-5.6 12.9-9.4 3.5-4.3 5.6-4.1 10.1.5 1.5 1.6 3.2 2.9 3.7 2.9 1.3 0 6 9 8 15.5 2.9 9.4 3.4 17 1.6 25.7-2.3 11-4 14.3-10.3 20.6-6.3 6.3-6.3 6.3-8.8-4-3-11.9-9.5-24.3-17.4-33.1-4.9-5.5-8-6.8-12.5-5.6-2 .5-3.6 1.2-3.6 1.4 0 .3 3.3 3.7 7.3 7.7s8.7 9.8 10.4 12.8c4.2 7.6 8.1 19.4 9.3 28.3 1.4 9.6-.4 17.8-6.1 28.9-3.5 6.7-5.5 9.1-13 15.5-9.3 7.9-10.7 10.5-6.5 12.4 1.8.8 3 .7 5.4-.5 1.7-.9 3.7-1.6 4.5-1.6 1.4 0 9.1-8.5 12.2-13.5 1-1.7 2.9-4.1 4.1-5.5 3.4-3.9 8.4-16.6 8.4-21.6 0-3.7.3-4.4 2-4.4 2.4 0 12.6-9.7 16.5-15.8 1.5-2.3 2.9-4.2 3.2-4.2.2 0 2.4 1.9 4.9 4.2 5.1 4.7 9.7 11 10.9 14.8.4 1.4 2 5.5 3.6 9.1 5.8 13.5 6.1 22.3.7 30.4-7 10.6-15.7 16.6-33.7 23.5-8.2 3.2-8.4 3.2-18 2.3-12.7-1.3-14.1-.7-15.7 6.9-.8 4.2-3 8.7-9 17.9-13.4 20.7-20.2 26-40.2 31-15.5 3.9-17.4 4.7-17 7.3.3 1.9 1 2.1 9.2 2.4 10.4.3 17.1-1.3 26.5-6.5 8.9-5 13.9-9.9 22.7-22.2 4.1-5.8 11.2-14.8 15.6-19.9l8.1-9.2h7.2c6.4 0 19-3.2 29.5-7.4 2.5-1 12.4 15.3 15.5 25.4 2.8 9.2 4.9 24.7 3.9 29.5-1.2 6.3-4.8 16.1-7.8 21.1-6.6 10.9-19.6 22.5-28.5 25.5-8.2 2.8-8.6 3.4-7.1 11.6.7 3.8 1.5 7.2 1.9 7.8 2.2 3.6 0 16.6-3.8 22.8-6.3 10.1-16 14.7-31.3 14.7-4 0-7.9.4-8.6.8-2.2 1.4 3.9 4.9 9.9 5.6 7.1.9 21.5-.9 28-3.4 2.7-1.1 5.1-2 5.3-2 .8 0 3.7 8.1 5.1 14 2 9 1.9 17.3-.6 27.7-2.2 9.6-4.9 15.3-14.2 31.3-13.7 23.2-29.7 33.5-55.6 35.6-10.6.9-27.3-1.1-33.8-4.1-9.2-4.1-19.2-11.3-28-20-4.7-4.7-9.1-8.5-9.8-8.5-.6 0-1.9.6-2.9 1.3-1.5 1.1-1.6 1.6-.2 4.7.8 1.9 4.5 6.4 8.3 9.9 3.7 3.5 9.5 9 12.8 12.1 3.3 3.2 7 6 8.1 6.4 5.1 1.6 3.2 13.3-3.2 19.8-6 6.3-12.4 8.8-22.3 8.9-10.7.1-18.8 1.2-20.4 2.8-2 2 .6 4.5 7.4 6.8 14.6 4.9 32.1 1 42-9.4 6.2-6.5 8.2-11.5 7.7-19.2-.3-7-.2-7 7.8-4.6 3 .9 9 1.5 15.7 1.5 6 0 10.6.4 10.3.9-.3.4-1.3 5.1-2.2 10.2-2.1 12.4-4.3 18.6-10.1 28.9-8.5 15.2-12.6 18.9-27.3 24.9-15.7 6.4-25.8 7.9-41.1 6.2-24.6-2.8-48.3-11.4-56.9-20.6-2-2.1-2.1-2.5-.6-2.5 1.9 0 10.1-4.3 12.9-6.8 4.7-4.2 10.5-14.2 12.1-20.8 1-3.8 2.6-10.1 3.7-13.9l2.1-7 10.9.3 11 .4 4.4-4.8c5.6-6.1 4.9-7.4-3.3-6-10.3 1.7-26.2-2.6-33.2-8.8-5.8-5.3-11.8-8.8-13.9-8.1-4.2 1.3-3.3 6.4 2.5 14.1 1.3 1.7 2.4 3.4 2.4 3.7 0 .4 1.4 2.8 3 5.4 3 4.6 3 4.9 2.4 14.3-1 14.6-4.1 19.4-17.5 27l-9.1 5.3-5.1-4.9c-2.8-2.7-5.2-4.9-5.4-4.9-.3 0 2.5-11 3.6-13.8 1.4-3.6 1.4-12.5 0-16.6-2.3-6.4-4.1-3.5-7.9 12.3-5.5 22.9-11 29.7-30.6 38.2-12.5 5.3-14.7 7.1-12.4 9.9 2 2.4 12.5 1.3 18.8-1.9 2.6-1.3 6.5-3.2 8.6-4.2 2.2-1 6.3-4.2 9.3-7.2l5.3-5.4 4.2 2.7c2.4 1.5 6.6 4.1 9.5 5.8 2.8 1.8 8.8 6 13.3 9.5 4.4 3.5 9.5 6.8 11.3 7.4 4.9 1.7 5.1 2.3 1 5-2.1 1.4-10.3 9-18.3 16.8-18.4 18-26.3 22.2-50.6 27.4-9.5 2-12.4 2.3-19.5 1.5-12.7-1.3-23.2-5.4-28.7-11.2-1.2-1.3-3.3-5-4.5-8.3-1.3-3.3-2.9-5.9-3.7-5.9-2.1 0-4 4.4-4 9.3s.2 4.9-6.5.2c-8.4-6-15.2-13.5-17.7-19.8-3.2-8-3.2-26-.1-34.2 1.4-3.5 2.2-7.9 2.2-11.9 0-3.5.3-6.6.5-6.8.2-.3 3.1 1.5 6.3 3.9 9 6.7 14.2 9.8 16.4 9.8 1 0 4.2 1.2 6.9 2.6 5.4 2.8 8.3 2.8 8.8.1.6-2.9-2.3-5.3-15.1-12.4-7.9-4.4-14.3-8.8-18.7-13-3.7-3.4-7.2-6.3-7.7-6.3-.6 0-1.3-2-1.6-4.5-.4-2.5-1-5.7-1.3-7.1l-.7-2.6 4.3 2.2c7.9 4.1 22.4 7 34.5 7 16.1 0 32-2.3 38.6-5.7 7.7-3.9 21-17.5 23.4-23.8 1.1-2.8 2.7-6.4 3.7-8 1-1.7 1.8-4.5 1.8-6.4 0-2.7.3-3.2 1.8-2.6 3.5 1.4 15.9 1.8 19.4.6 4.8-1.6 11.3-9.5 15.2-18.4 2.9-6.8 3.1-7.9 3.1-19.3l-.1-12.1 2.6 1.7c11.1 7.6 16.2 10.5 22.6 12.6 7.1 2.4 8.2 2.5 27.6 2.1 39.3-.8 60.5-6.7 72.6-20.3 5.1-5.6 15.5-23.6 18.3-31.4.9-2.5 3.4-8.3 5.6-13 6.5-13.6 8.1-20.8 7.6-33-.2-5.8-.9-11.8-1.5-13.3-1.3-3.4 0-4.7 4.6-4.7 4.3 0 18.2-7.8 24.7-13.8 6.4-5.9 12.5-17 13.6-24.7l.5-4.2 10.6-.8c15.2-1 20.1-4.2 18.7-12.4-1.3-7.5-2.1-7.8-10.7-3.5-7.2 3.5-7.9 3.7-11.6 2.6-5.3-1.6-8.4-4.2-11-9.4-1.3-2.3-3.6-5.9-5.1-7.8-2.7-3.1-3.1-3.3-5.5-2.2-2.4 1.1-2.6 1.7-2.6 7.1 0 6.8 3 15.8 6.7 19.8 2.1 2.2 2.4 3.2 1.9 6.7-1 6.5-5.1 14.2-10.8 20.2-6.2 6.5-10.5 8.9-24.6 13.5-10.9 3.5-13.4 5.5-10.7 8.3 2.5 2.5 4.7 16 4 24.4-1.3 16.1-17.9 54.6-27.7 64.2-11.9 11.7-32.5 18.4-62.8 20.5-23.4 1.6-44.1-6.6-62.8-24.9l-10.2-10-2.2 2.1-2.1 2.1 4.6 7.7c3.7 6.3 4.7 9.1 5.8 16.2 2 13.7-1.2 27.5-7.5 31.7-2.6 1.6-11.8 3.2-23.4 4-8 .5-9.3 1.7-9.6 9.2-.2 6.2-3.5 14.7-8.1 21.4-5.2 7.5-15.5 13.2-30 16.6-13.8 3.3-38.4 1.2-45.3-3.8-1-.7-5.2-5-9.3-9.4-6.5-7-7.7-8.8-8.2-12.7-1.4-9.9 1-18.2 6.6-23.5l2.3-2.2 3 6.1c3.1 6.5 6.1 9.4 8.8 8.3 2.5-1 2-6.6-1.4-14.6-1.6-3.8-3-7.6-3-8.4 0-.8-2.5-7.5-5.6-15-10.6-26.1-11.6-31.7-10.3-58 .7-16 1.3-19.8 3.8-28.2 1.6-5.3 3.2-11.5 3.6-13.7 1.2-7.6 16.7-37.5 19.4-37.5 1 0 7.1-6 7.1-7 0-1.8-6.8-2.9-10.6-1.7-2.8.9-4.5 2.4-7.1 6.4-1.8 2.9-3.6 5.3-3.8 5.3-.2 0-1.6-3.8-3.1-8.5-2.4-7.7-2.5-9.1-1.6-14 1.9-9.3 8.6-21.3 14.1-25.2 1.6-1.1 2.5-.9 5.9 1 16.6 9.2 19.9 10.9 22.6 11.4 1.7.4 5.4 1.7 8.1 3 2.8 1.2 5.9 2.3 7.1 2.3 1.1 0 4.6 1.4 7.7 3.1 6.1 3.3 11 3.6 11.5.7.6-2.9-8.5-8.4-21.7-13.3-31.5-11.7-47.2-24.5-53.7-43.7-2.3-6.7-2.4-8.3-2.4-34.2 0-42.6 2.3-61.3 8.8-72.6 1.1-1.9 2.7-6 3.7-9 2.3-7.4 9.3-22.8 12.1-26.5 1.2-1.7 3.1-4.8 4.3-7 1.2-2.2 3.3-5.8 4.6-8 2.7-4.3 3.2-7.5 1.3-7.5-2.1 0-10.7 6.1-11.3 8.1-.4 1-1 1.9-1.5 1.9-2.4 0-12.8-12.1-15.9-18.4-5.5-11.5-6.4-18.2-5.7-41.1.5-17.7.9-20.9 3.2-28 1.4-4.3 2.9-8.4 3.4-9.1.6-.6 1.5-4.6 2.1-8.8 1.1-7.9.4-15-2.3-24.4-1.1-3.7-1-4.7.5-7.5 1.8-3.2 7.9-7.9 15.2-11.5 8.1-4 21.9-9.3 27.8-10.7 12.9-3 31-.9 47.2 5.6 8.7 3.5 22.5 5.1 22.5 2.6 0-2.1-5.4-5.3-11.5-6.8-2.7-.6-6.2-1.8-7.6-2.5-5.4-2.7-25.4-6.5-36.9-7.1-10-.4-12.3-.2-17.4 1.6-3.3 1.2-6.6 2.1-7.4 2.1-1.3 0-6.9 2.4-19.7 8.6-5 2.4-9.4.2-15.1-7.6-6.6-9.1-9.8-16.4-9.7-22.5 0-6.2 2.5-11.9 9.9-23.3 3.2-4.8 6.9-10.4 8.2-12.5 4.1-6.2 19.7-18.4 30.9-24.1 1.8-.9 3.9-2.9 4.6-4.4 1.8-3.7 1.7-8.7-.3-8.6-1.5.1-19.9 13-29.9 21-3.1 2.3-5.7 4.2-5.8 4-.2-.2-1.5-4.3-3-9.2-3.2-11-3.3-20.6-.4-31.7 2.1-7.9 2.7-9.3 7-16 3.3-5.3 14.2-11.2 28.1-15.2 6.1-1.8 8.8-1.8 17.8.1z"/><path d="M772.8 186.6c-1.2 1.1 2.6 6.6 6.1 8.8 5.8 3.7 9.1 8.9 11.7 18.4 3.8 13.7 3 22.2-2.8 28.8-3.6 4.1-8.9 6.9-21.4 11.4l-9.2 3.2-7.3-6.2c-6.3-5.3-7.5-5.9-8.5-4.6-1.7 2.4-.5 6.7 3.1 10.6 4.1 4.5 7.5 9.5 7.5 11 0 .7 1.8 5 4 9.7 3.4 7.3 4.2 8.4 6.2 8.1 2.2-.3 2.3-.7 2.2-7.4-.1-4.4-.8-8.2-1.8-10.3-1-1.8-1.6-3.5-1.3-3.7.2-.3 3.5-.7 7.3-1 10.5-.9 20-4.8 25.2-10.2l4.3-4.6 10.4.3c12.9.3 18.7-1.7 21-7.3 2-4.8 2-9 0-8.2-5.9 2.2-16 4.5-21.3 4.9l-6.4.3.5-2.5c.3-1.4.2-8-.2-14.6-.7-10.9-1.1-12.5-3.9-17.5-3-5.3-8.3-10.1-16.2-14.7-3.8-2.2-8.4-3.6-9.2-2.7zm-89.3 58.8c-1.8 1.3-1.6 1.7 2.2 8.7 2.3 4.1 4.4 9.6 4.8 12.2l.7 4.7-7.8-.3c-9.5-.3-14.7 1.4-14.2 4.7.3 2 .8 2.1 9.8 1.8 11.6-.3 27.2 1.2 34.8 3.4 14.6 4.2 25.5 14.1 33.9 30.9 2 3.8 4.5 8.3 5.6 9.8 1.1 1.6 2.7 4.8 3.6 7.2 2.4 6.4 8.7 15.1 16.8 23 3.9 3.8 7.8 8.4 8.6 10.1.9 1.7 2.2 3.5 2.9 4.1.9.8 1.3 4.4 1.3 13-.1 13.1-.9 15.7-9.4 27.8-3.9 5.6-3.9 5.6-2.4 9.3.8 2 2.3 4.6 3.3 5.7 5.1 5.8 6.4 12.9 3.6 21-3.9 11.8-15.8 18.7-34.7 20.1l-8.5.7-4.7-7.1c-6.7-10.1-18.2-16.9-21.6-12.8-1.7 2 .3 4.9 7.6 11.2 8.5 7.4 10.7 12.9 10.9 27.1l.2 11.3h-6c-3.8 0-7.2.7-9.6 1.9-4.9 2.5-11.7 9.7-13.6 14.2l-1.5 3.7-8.8-3.4c-17-6.4-32.5-3.8-42.1 7.1-7.4 8.4-8.6 21.2-1.7 18.5 2.8-1.1 8.3-7 10.3-11.1.9-1.8 3.7-4.7 6-6.4 4-2.7 5.1-3 12-3 7.9 0 14 2.2 17.1 5.9.8.9 2.1 1.6 3.1 1.6s2 .7 2.4 1.5c.3.8 1.4 1.5 2.4 1.5 2.2 0 9.3-7.2 11.6-11.7 2.3-4.7 8.2-10 13.1-11.9 4.1-1.5 4.7-1.5 12 .5 10.3 2.9 14.1 5 20.7 11.5 6.7 6.6 11.5 14.4 15 24.7 2.5 7.1 2.6 8 1.8 18-.5 5.7-1.2 11.7-1.6 13.4-.9 4.9-4.4 13.6-6.4 16.6-1.1 1.5-2.1 3.7-2.2 5-.3 2 .3 2.5 3.6 3.3 3.6 1 4 .8 6.7-2.2 1.6-1.7 3.1-4.4 3.4-5.9.3-1.6 1.3-5.2 2.1-8.1.8-2.9 1.8-9.3 2.1-14.2.5-7 .9-9.1 2.2-9.4 8.2-2.5 21.4-4.3 25.5-3.5 11.4 2.1 25.4 7.6 30 11.8 3.8 3.3 7.3 5.2 8.9 4.5 2.1-.8 6-7.6 8.2-14.3 3.6-11.1 17.3-21.1 28.8-21.1 4.3 0 12.7-2.7 12.7-4 0-2.1-6.5-2.9-15.5-2-10.1 1-18 3.7-23.3 7.7-4.9 3.7-10.9 11.8-12.9 17.3l-1.7 4.8-4.6-2.2c-16.8-8.3-37.7-11.7-51-8.1-3 .8-5.7 1.5-6 1.5-.3 0-.5-2.4-.5-5.3 0-5-.8-7.2-6.1-16.6-9.4-16.9-22-27.1-37.6-30.5-2.5-.6-2.6-.9-1.8-3.2.6-1.4 1-6.7 1-11.9v-9.3l8.3.5c14.6.9 26.4-3.3 37.5-13.4 6.6-6 9.2-12.7 9.2-23.9 0-8.8-1.5-12.8-7.1-18.7l-3.8-3.9 3-3c7.8-7.8 12.5-25 10-36.1l-.9-3.7h6.4c6.1 0 14.2-.9 26.8-3.1 7.8-1.4 14.6-4.9 18.5-9.6 4.5-5.4 4.8-7.8 2.1-13.1l-2.4-4.4-5.1 5.6c-6.3 6.8-16 11.6-28.7 14.2l-8.6 1.8-9.5-4.7c-5.2-2.5-11.8-6.8-14.7-9.4-5.4-4.9-16.3-20.7-24-34.8-7.8-14.4-12.9-21.1-21.5-28.1-5.4-4.4-15.8-9.4-19.7-9.4-1.2 0-4.7-.5-7.8-1.2-5.5-1.1-5.6-1.1-5.2-4.4.5-4.3-5.1-14.7-10.8-19.8-4.5-4-4.9-4.2-7.5-2.2z"/><path d="M846.4 250.7c-2.4 3.7-2.2 10.6.5 16.7 1.5 3.6 2.1 7.1 2.2 14.4.2 10.1-.3 12.3-6.4 26.7-2.2 5.2-2.4 6.3-1.3 8 .7 1.1 2.2 2.2 3.2 2.4 3.8.7 15.1 8.1 20.9 13.8 3.3 3.2 9.3 10.2 13.3 15.6 15.9 21 23 38.7 25.3 62.5 1 9.9.9 11.6-1.5 23-1.4 6.8-3.4 14.3-4.5 16.6-4.2 9.6-17.9 27.3-26.7 34.7-2.3 1.9-10.4 6.5-18 10.4-10.9 5.5-13.9 7.4-13.9 9 0 1.8.6 2 6.3 1.9 12.8-.2 30-11.7 44.6-29.6l3.8-4.8 9.2 4.8c7.1 3.8 9.5 5.6 10.8 8.3 2.9 5.7 11.2 15.4 13.6 15.7 3.4.5 3.7-2.1 1.2-10.1-1.6-5-3.3-8.1-5.6-10.3-4.7-4.5-15.3-11.4-17.5-11.4-1 0-2.1-.5-2.4-1-.3-.6-1.5-1-2.6-1-1.8 0-1.8-.2.4-3.8 3-4.9 6.7-13.6 6.7-15.9 0-1 .9-4.4 2-7.6 1.7-4.7 2-8.2 2-20.4 0-8.2-.4-16.5-.9-18.5-.8-3.6-.8-3.7 7.1-11.2 8.3-8 10.2-9.2 18.8-12.5 3.7-1.4 5.8-1.7 7.1-1.1 1 .6 2.6.7 3.6.3 2.6-.9 7.3-4.3 7.3-5.2 0-1.1-10.3-3.1-16-3.1-7.5 0-24.5 9.4-28.2 15.7-2.4 4-2.6 3.9-5.8-5.6-1.1-3.5-2.7-7.3-3.4-8.5-.8-1.1-1.6-3.2-2-4.6-.3-1.4-4.2-7.2-8.5-13l-8-10.5 3.4-3.5c1.8-1.9 4.3-5.2 5.4-7.3 1.2-2 3.1-5.4 4.3-7.5 1.2-2 2.4-5.7 2.7-8.2l.6-4.5 8.4-.7c7.3-.6 9.1-.4 13.5 1.4 2.8 1.2 6.7 3.3 8.6 4.8 5.8 4.5 7.5 4.6 10.5.6 2.2-2.9 2.4-3.8 1.5-5.5-.6-1.2-2.3-2.3-3.8-2.7-1.5-.3-4-1.2-5.7-1.9-7.6-3.3-17.5-5.5-24.7-5.5h-7.5l-.7-6.1c-.3-3.4-.6-8.2-.6-10.6 0-6.7-2-10.1-10.8-18.6-7-6.6-8.7-7.7-11.7-7.7-1.9 0-3.5.4-3.5 1 0 .5 2.5 3.6 5.6 6.7 6.4 6.4 8.7 10.9 10.9 21.2 2.3 10.8 2 20.7-.9 28.5-2 5.5-8.7 16.9-10.6 18.1-1 .6-17.3-18.4-20.3-23.5-2.4-4.2-2.7-5.2-1.6-7.1 2.2-4.1 1.2-26.8-1.7-39.9-3.6-15.9-4.6-17.4-8-12.3zM683 319.5c-1.7 2.1-.1 3.8 6.6 7.1 2.9 1.4 5.6 3.3 5.9 4.2.3 1 2.7 4 5.3 6.8 9.4 10.1 8.9 8.5 4.8 14.7-6.7 10.1-8.3 15.6-9 31.5-.8 15.5-.2 19.2 4.2 24.9l2.4 3.3h-6.8c-7.9 0-18.2 2.2-22.2 4.7-8.8 5.5-18.1 14.8-18.2 18 0 4.9 3.8 3.8 13.6-4.1 13.2-10.6 23.2-13.8 36.9-11.6 12.5 2 19.5 2.4 19.5 1.1 0-2.2-3.9-4.9-8.1-5.6-7.2-1.1-7.6-1.3-7.7-4.8-.1-1.7-1.3-6.8-2.8-11.2-2.2-6.9-2.5-9.1-2.1-16 .7-10 3.7-19.9 8-26.1l3.3-4.8 9.1-.2c12.8-.3 13.8-1.1 14.5-10.4.2-3.6 0-4.4-1.2-4.2-10.4 2.4-12.8 2.4-18.6 0-3.3-1.3-10.1-5.5-15.3-9.2-13-9.4-19.1-11.7-22.1-8.1zm49.5 277.8c-1.4 1.1-1.6 2.1-1.1 5.2.4 2.1 1.5 4.9 2.4 6.4 2.5 3.7 2.1 13.5-.6 19.3-3.7 7.6-4.4 7.9-14.8 6.6-12.2-1.5-15.2-.8-20.2 4.7-4.6 5.1-5.7 5.6-18.2 8.5-9.3 2.2-12.3 4-11.4 6.5 1.5 3.8 19.8.3 34.5-6.6 8.1-3.8 8.8-4 12.8-2.9 2.3.6 5.7 2 7.4 3.1 2.7 1.6 5.1 1.9 15.2 1.9 6.6 0 17.5-.5 24.2-.9 13.4-1 18.7-2.8 25.7-8.5 2.3-1.8 5-3.6 6.2-4 1.1-.3 3.8-2.4 5.9-4.6 3.5-3.6 3.9-4.5 4-9.2 0-3.3-.5-5.3-1.3-5.5-.7-.3-4.7 2.9-9 7-4.2 4.1-9.7 8.5-12.1 9.7-6.8 3.4-22.6 7-33.6 7.7l-10 .6 2.6-2.9c3.7-4.1 5-10 4.8-21.1-.2-10.7-1.5-15.2-5.6-19.6-3-3-5-3.4-7.8-1.4z"/><path d="M852.4 612.4c-.6 2.6 2.3 16.5 6.2 29.4 3.2 10.4 3.9 17.5 2.5 23-2.5 9.1-12.5 16-24.7 17-5.2.4-7.7-.1-15.5-2.8-5.2-1.8-10-4.1-10.8-5.2-.7-1-1.8-1.8-2.3-1.8-.6 0-3.8 2.6-7.2 5.8-11.2 10.4-27.2 16.9-47.7 19.3-13.7 1.6-22.9.7-35.4-3.5-14.8-5-21.3-8.6-30.8-17.1-4.7-4.1-9.1-7.5-10-7.5-.8 0-2.1.7-2.8 1.6-1.1 1.4-.9 2.4 1.4 6.8 3 5.8 9.1 10.4 20.9 15.9 5.8 2.7 6.8 3.5 6.7 5.7 0 1.4.3 5.2.6 8.5.9 9-.8 11.5-13.2 19.3-10.4 6.4-12.4 8.9-8.7 11 2.4 1.3 15.3.3 19.7-1.5 2.8-1.2 4.7-3.2 7.3-7.5l3.6-5.9-.4-10.9-.3-10.8 3.5 1.5c1.9.9 6 2 9 2.5 7.2 1.3 35.7.3 44-1.6 14-3.1 36.1-11.8 39.5-15.7 1.7-1.8 1.9-1.8 4.4-.1 5.5 3.8 11.4 5.2 21.8 5.2 8.3 0 11.2-.4 16.7-2.5 8.7-3.3 10.8-4.7 15.6-10.8l4-5v-9.6c0-6.6-.7-12.7-2.4-19.6-1.3-5.5-2.6-12.2-3-14.8-.7-5.7-3.6-12.7-7.2-17.4-3-3.9-4.2-4.1-5-.9zM432 1018v30l171.5-.2 171.6-.3.2-29.8.2-29.7H432v30zm13 79v30h308l-.2-29.8-.3-29.7-153.7-.3-153.8-.2v30zm19 82.5v29.5h268v-59H464v29.5z"/></svg>