<svg style="transition:.3s" viewBox="0 0 1440 490" xmlns="http://www.w3.org/2000/svg" transform="rotate(180)"><defs><linearGradient id="a" x1="0" x2="0" y1="1" y2="0"><stop stop-color="rgba(170, 9, 174, 1)" offset="0%"/><stop stop-color="rgba(133.514, 10.849, 152.972, 1)" offset="100%"/></linearGradient></defs><path fill="url(#a)" d="M0 147l40 40.8C80 229 160 310 240 351.2c80 40.8 160 40.8 240 49 80 7.8 160 24.8 240 8.1C800 392 880 343 960 277.7c80-65.7 160-146.7 240-196 80-48.7 160-65.7 240-65.4 80-.3 160 16.7 240 32.7 80 16 160 33 240 98s160 180 240 220.5 160 8.5 240-24.5 160-65 240-73.5 160 8.5 240 40.8c80 32.7 160 81.7 240 57.2s160-122.5 240-179.7c80-56.8 160-73.8 240-32.6 80 40.8 160 138.8 240 163.3s160-24.5 240-49 160-24.5 240-32.7c80-7.8 160-24.8 240-65.3S4720 65 4800 32.7C4880 0 4960 0 5040 49s160 147 240 187.8c80 41.2 160 24.2 240-24.5C5600 163 5680 82 5720 40.8L5760 0v490H0z"/></svg>